<?xml version="1.0" encoding="UTF-8"?>
<svg xmlns="http://www.w3.org/2000/svg" viewBox="0 0 1937.4 1652.76">
  <defs>
    <clipPath id="fillClip">
      <rect x="0" y="991.6560000000001" width="1937.4" height="661.1039999999999" />
    </clipPath>
  </defs>
  <path d="M1937.4,513.88c0,699.08-968.7,1138.88-968.7,1138.88,0,0-968.7-439.8-968.7-1138.88C0,333.31,101.86,0,495.36,0c314.82,0,473.34,254.63,473.34,254.63,0,0,158.52-254.63,473.34-254.63,393.5,0,495.36,333.31,495.36,513.88" fill="#ccc" />
  <g clip-path="url(#fillClip)">
    <path d="M1937.4,513.88c0,699.08-968.7,1138.88-968.7,1138.88,0,0-968.7-439.8-968.7-1138.88C0,333.31,101.86,0,495.36,0c314.82,0,473.34,254.63,473.34,254.63,0,0,158.52-254.63,473.34-254.63,393.5,0,495.36,333.31,495.36,513.88" fill="#d82a3f" />
  </g>
</svg>