<svg width="263" height="204" viewBox="0 0 263 204" fill="none" xmlns="http://www.w3.org/2000/svg">
<g clip-path="url(#clip0_66_156)">
<g clip-path="url(#clip1_66_156)">
<mask id="mask0_66_156" style="mask-type:luminance" maskUnits="userSpaceOnUse" x="0" y="-5" width="263" height="209">
<path d="M253 -4.06152H10C4.47715 -4.06152 0 0.415639 0 5.93849V193.57C0 199.093 4.47715 203.57 10 203.57H253C258.523 203.57 263 199.093 263 193.57V5.93848C263 0.415629 258.523 -4.06152 253 -4.06152Z" fill="white"/>
</mask>
<g mask="url(#mask0_66_156)">
<path d="M253 -4.06152H10C4.47715 -4.06152 0 0.415639 0 5.93849V193.57C0 199.093 4.47715 203.57 10 203.57H253C258.523 203.57 263 199.093 263 193.57V5.93848C263 0.415629 258.523 -4.06152 253 -4.06152Z" fill="#96F5FF"/>
<path d="M243.226 52.2957H230.372C175.767 52.2957 131.5 96.5622 131.5 151.168V164.021C131.5 218.627 175.767 262.893 230.372 262.893H243.226C297.831 262.893 342.098 218.627 342.098 164.021V151.168C342.098 96.5622 297.831 52.2957 243.226 52.2957Z" fill="#CAF9FF"/>
<path d="M323.312 157.1C323.312 109.593 284.8 71.0813 237.293 71.0813C189.786 71.0813 151.274 109.593 151.274 157.1C151.274 204.607 189.786 243.119 237.293 243.119C284.8 243.119 323.312 204.607 323.312 157.1Z" fill="white"/>
</g>
</g>
</g>
<defs>
<clipPath id="clip0_66_156">
<rect width="263" height="203.57" fill="white"/>
</clipPath>
<clipPath id="clip1_66_156">
<rect width="263" height="207.632" fill="white" transform="translate(0 -4.06152)"/>
</clipPath>
</defs>
</svg>
